<svg width="101" height="25" viewBox="0 0 101 25" fill="none" xmlns="http://www.w3.org/2000/svg">
<g clip-path="url(#clip0_2001_5848)">
<path fill-rule="evenodd" clip-rule="evenodd" d="M0.861997 12.1052L0.885502 15.2059L1.35366 15.206H1.82194L1.76437 13.6797C1.73269 12.8403 1.74404 11.6 1.78958 10.9234L1.87247 9.69346H3.10244H4.3324L4.41109 10.3305C4.45435 10.6809 4.46854 11.9212 4.44264 13.0868L4.39542 15.206H4.87437H5.35342L5.36081 12.1052L5.36819 9.00439H3.10334H0.838379L0.861997 12.1052ZM92.4088 9.66475C92.0798 12.755 91.9389 13.4183 91.4816 14.0288C91.2774 14.3016 91.1121 14.4021 90.8673 14.4021H90.5324V15.4356C90.5324 16.3779 90.5516 16.4692 90.7502 16.4692C91.1504 16.4692 91.3272 16.3338 91.3288 16.0263C91.3296 15.8593 91.3614 15.6054 91.3994 15.4619C91.4685 15.2012 91.4706 15.2009 93.5269 15.2322L95.5852 15.2634L95.6165 15.608C95.6859 16.3758 95.7456 16.4858 96.0718 16.4477C96.3782 16.4121 96.3804 16.4051 96.413 15.407L96.4458 14.4021H96.0439C95.5688 14.4021 95.5987 14.6382 95.6398 11.2151L95.6664 9.00439H94.0727H92.4791L92.4088 9.66475ZM96.664 9.40635V9.8083H97.5108H98.3575L98.351 12.4784L98.3446 15.1486L98.8101 15.1838L99.2756 15.2193V12.5187V9.81842L100.099 9.78464L100.922 9.75089L100.958 9.37764L100.993 9.00439H98.8287H96.664V9.40635ZM94.6763 10.8706C94.7191 11.5181 94.7369 12.5646 94.7157 13.1962L94.6769 14.3446L93.4171 14.3769L92.1572 14.4093L92.4804 13.7453C92.7794 13.131 92.9722 12.2006 93.2064 10.239L93.2716 9.69346H93.935H94.5983L94.6763 10.8706ZM7.18746 12.7943V15.206H7.63508H8.08269L8.01603 14.4021L7.94938 13.5982L8.44843 13.5975C9.08158 13.5967 9.70179 13.4237 9.99292 13.1667C10.5603 12.6657 10.754 11.7178 10.4217 11.0678C10.1414 10.5197 9.73392 10.3825 8.38542 10.3825H7.18746V12.7943ZM11.6159 12.7943V15.206H12.1011H12.5863L13.6624 13.5468C14.2542 12.6343 14.7769 11.8849 14.8236 11.8816C14.8704 11.8783 14.9088 12.6249 14.9088 13.5407V15.206H15.363H15.8172V12.7943V10.3825H15.3078H14.7983L13.6897 12.0765L12.581 13.7704L12.5496 12.0765L12.5183 10.3825H12.067H11.6159V12.7943ZM17.5772 12.794V15.2057L19.4791 15.2059L21.3811 15.206V15.5985C21.3811 16.1929 21.4807 16.3545 21.8474 16.3545H22.1759V15.4356C22.1759 14.6065 22.1546 14.5169 21.9581 14.5169C21.3825 14.5169 21.3811 14.512 21.3811 12.38V10.3825H20.9187H20.4562L20.5374 12.3923C20.597 13.8679 20.5841 14.4059 20.489 14.4164C20.4175 14.4243 20.2825 14.4308 20.1888 14.4308C20.0951 14.4308 19.6586 14.4243 19.2188 14.4164L18.419 14.4021L18.429 12.5933C18.4346 11.5985 18.4367 10.6941 18.434 10.5835C18.4299 10.4288 18.3308 10.3825 18.003 10.3824H17.5772V12.794ZM23.3458 12.7971L23.3683 15.2118L24.9011 15.1801L26.434 15.1486V14.804V14.4595L25.3554 14.451L24.2766 14.4424L24.2428 13.7332L24.209 13.0239H25.1228H26.0365V12.6794V12.3349H25.1282H24.2199V11.7032V11.0716H25.3554H26.4909V10.7271V10.3825H24.9071H23.3233L23.3458 12.7971ZM27.8534 12.7943V15.206H28.3235H28.7935L28.7255 14.5456C28.6879 14.1825 28.6887 13.2523 28.727 12.4784L28.7968 11.0716H29.8013H30.8057V13.1388V15.206H31.2031H31.6004L31.6012 13.7417C31.6015 12.9363 31.6347 11.851 31.6748 11.33L31.7476 10.3825H29.8005H27.8534V12.7943ZM33.3362 12.7941L33.3605 15.2057L33.7863 15.2059L34.2121 15.206V14.1724V13.1388H35.4043H36.5967V14.1724V15.206H37.0509H37.505V12.7943V10.3825H37.0509H36.5967V11.4201V12.4578L35.4327 12.425L34.2689 12.3923L34.2361 11.3874L34.2032 10.3825H33.7577H33.312L33.3362 12.7941ZM39.0947 12.8079V15.2334L40.1451 15.1839C41.3417 15.1275 41.8194 14.9352 42.1719 14.3677C42.4512 13.9181 42.415 13.0273 42.1033 12.6788C41.8481 12.3936 41.2506 12.2214 40.5141 12.221L39.9463 12.2206L39.9834 11.3015L40.0204 10.3825H39.5576H39.0947V12.8079ZM43.2961 12.7943V15.206L43.7219 15.2057L44.1477 15.2055L44.1647 12.794L44.1821 10.3825H43.7389H43.2961V12.7943ZM45.8277 12.7972L45.8509 15.2119L47.3837 15.1802L48.9167 15.1486V14.804V14.4595L47.838 14.4525L46.7593 14.4456L46.7255 13.7347L46.6917 13.0239H47.6055H48.5192V12.6794V12.3349H47.6109H46.7025V11.7074V11.0799L47.8095 11.047L48.9167 11.0142L48.9526 10.6983L48.9886 10.3825H47.3967H45.8046L45.8277 12.7972ZM51.9257 12.8011V15.2199L52.3515 15.1842L52.7773 15.1486L52.7387 14.3734L52.6999 13.5982L53.1929 13.5975C53.9635 13.5965 54.4879 13.3982 54.8631 12.9662C55.2976 12.4657 55.4178 11.8655 55.2073 11.2493C54.9712 10.5589 54.5412 10.3829 53.0897 10.3828L51.9257 10.3825V12.8011ZM56.4677 12.7943V15.206H58.0006H59.5335V14.8739C59.5335 14.4738 59.273 14.3796 58.2364 14.4039C57.8569 14.4129 57.4801 14.4161 57.3988 14.4111C57.2917 14.4046 57.2604 14.2213 57.2853 13.7417L57.3193 13.0814L58.1994 13.0478L59.0794 13.0143V12.6746V12.3349H58.1709C57.1665 12.3349 57.1948 12.3631 57.3354 11.5023L57.4059 11.0716H58.4697H59.5335V10.7271V10.3825H58.0006H56.4677V12.7943ZM60.9365 12.7938L60.9529 15.2051L63.9336 15.2055L66.9142 15.206V12.7943V10.3825H66.4601H66.0058V12.3839C66.0058 14.6439 66.0807 14.4882 65.0261 14.4201L64.4161 14.3808V12.3816V10.3825H63.9619H63.5078V12.3923C63.5078 13.4977 63.4694 14.4072 63.4225 14.4136C63.3756 14.4197 63.082 14.4357 62.7697 14.4488C61.7383 14.4921 61.8045 14.6342 61.8045 12.3789V10.3825H61.3623H60.9199L60.9365 12.7938ZM68.7311 12.7943V15.206H70.2638H71.7968V14.8691C71.7968 14.4525 71.6093 14.3809 70.5762 14.4031C70.1546 14.4121 69.7459 14.4156 69.6677 14.4108C69.5709 14.4048 69.5258 14.1831 69.5258 13.713V13.0239H70.4343H71.3426V12.6794V12.3349H70.4343C69.4266 12.3349 69.4195 12.3272 69.5969 11.4305L69.6677 11.0716H70.7323H71.7968V10.7271V10.3825H70.2638H68.7311V12.7943ZM73.1594 12.7943V15.206H73.6258H74.0922L74.0516 14.2011L74.0111 13.1962L75.2316 13.1636L76.4523 13.131V14.1685V15.206H76.8498H77.2472L77.2693 13.1962C77.2813 12.0908 77.2941 11.0184 77.2976 10.8132C77.3035 10.4642 77.2765 10.4377 76.8827 10.4046L76.4614 10.3692L76.4285 11.3807L76.3956 12.3923L75.2316 12.425L74.0678 12.4578V11.4201V10.3825H73.6136H73.1594V12.7943ZM78.9779 12.7943L79.0003 15.206H79.4684H79.9366L81.0616 13.512L82.1865 11.8181L82.218 13.512L82.2493 15.206H82.7006H83.1517V12.7943V10.3825H82.6586H82.1654L81.0405 12.0765L79.9155 13.7704L79.8841 12.0765L79.8528 10.3825H79.4042H78.9555L78.9779 12.7943ZM85.4518 10.5714C84.9902 10.8015 84.6278 11.3816 84.6282 11.8891C84.6287 12.3352 84.9622 12.9509 85.3031 13.1354C85.4313 13.2049 85.5363 13.3085 85.5363 13.3656C85.5363 13.4228 85.2755 13.8136 84.9568 14.2342C84.6382 14.6546 84.4211 15.0386 84.4742 15.0875C84.5275 15.1364 84.7079 15.2089 84.8752 15.2488C85.2545 15.339 85.4046 15.1941 85.9446 14.2178C86.3452 13.4932 86.3696 13.4721 86.7701 13.5059L87.1826 13.5407L87.1422 14.3734L87.1018 15.206H87.568H88.0343V12.7943V10.3825L86.9273 10.3852C86.1462 10.387 85.7115 10.4419 85.4518 10.5714ZM9.40678 11.3535C9.71143 11.6615 9.75776 11.9831 9.55349 12.3712C9.34309 12.7706 9.09713 12.9015 8.55005 12.9054L8.03908 12.9091L8.04976 12.3636C8.07679 10.978 8.03602 11.0716 8.61194 11.0716C9.00856 11.0716 9.19263 11.1368 9.40678 11.3535ZM53.9826 11.1934C54.3143 11.3731 54.4543 11.8359 54.3104 12.2771C54.1704 12.7063 53.8042 12.9091 53.1695 12.9091H52.7206L52.7218 12.421C52.7226 12.1525 52.7548 11.7392 52.7934 11.5023C52.8609 11.0896 52.8824 11.0716 53.3107 11.0716C53.5564 11.0716 53.8586 11.1264 53.9826 11.1934ZM87.1259 11.9329V12.7943H86.7339C85.9167 12.7943 85.4079 12.2317 85.648 11.5933C85.7865 11.2248 86.066 11.0793 86.6434 11.075L87.1259 11.0716V11.9329ZM40.9829 12.9778C41.2242 13.0433 41.4793 13.456 41.4793 13.7811C41.4793 13.8757 41.3538 14.0799 41.2005 14.235C40.9863 14.4517 40.8023 14.5169 40.4056 14.5169H39.8896V13.713V12.9091L40.3154 12.9107C40.5497 12.9115 40.85 12.9417 40.9829 12.9778Z" fill="black"/>
<path fill-rule="evenodd" clip-rule="evenodd" d="M28.4579 0.130314C25.024 0.227495 18.872 0.268048 25.0168 0.40432C32.2771 0.565619 65.8384 0.571646 67.6688 0.40432C71.2345 0.0780691 38.6677 -0.158855 28.4579 0.130314ZM10.1656 1.84393C6.12513 1.99682 3.62252 2.0396 10.6184 2.32237C21.6328 2.76771 82.9186 2.57884 87.41 2.04836C88.0603 1.97164 77.1024 1.90292 65.3895 1.8896C53.6768 1.87644 37.1321 1.83533 28.6237 1.79825C20.1154 1.76116 11.8092 1.78163 10.1656 1.84393ZM23.6585 21.4223C20.8692 21.4965 15.9793 21.6684 12.7917 21.8042L4.82275 22.1084H18.4967C34.5434 22.1889 92.5885 22.2072 89.9456 22.0509C82.0507 21.5842 36.7038 21.0745 23.6585 21.4223ZM30.0879 23.4385C25.9541 23.5322 19.0174 23.6953 18.7684 23.7862C18.1827 24.0004 33.6731 24.0081 57.7076 23.8316C67.9676 23.7565 77.3493 23.7601 76.4527 23.6949C73.5752 23.4857 37.865 23.2624 30.0879 23.4385Z" fill="#D4252C"/>
</g>
<defs>
<clipPath id="clip0_2001_5848">
<rect width="100.155" height="24.0372" fill="white" transform="translate(0.838379)"/>
</clipPath>
</defs>
</svg>
