<svg width="425" height="102" viewBox="0 0 425 102" fill="none" xmlns="http://www.w3.org/2000/svg">
<g clip-path="url(#clip0_2003_491)">
<path fill-rule="evenodd" clip-rule="evenodd" d="M0.100222 51.3685L0.199963 64.5259L2.18657 64.5264H4.17367L3.92937 58.0498C3.79494 54.4879 3.84313 49.2246 4.03634 46.3538L4.38809 41.1344H9.60737H14.8266L15.1605 43.8377C15.3441 45.3246 15.4043 50.5877 15.2944 55.5337L15.094 64.5264H17.1264H19.1592L19.1906 51.3685L19.2219 38.2104H9.61121H0L0.100222 51.3685ZM388.572 41.0126C387.176 54.1257 386.578 56.9406 384.638 59.5312C383.771 60.6887 383.07 61.1151 382.031 61.1151H380.61V65.5008C380.61 69.4994 380.691 69.8868 381.534 69.8868C383.232 69.8868 383.982 69.3122 383.989 68.0075C383.993 67.2987 384.128 66.2212 384.289 65.6124C384.582 64.5059 384.591 64.505 393.317 64.6376L402.051 64.77L402.184 66.2322C402.478 69.4904 402.732 69.9571 404.116 69.7957C405.416 69.6447 405.426 69.615 405.564 65.3794L405.703 61.1151H403.998C401.982 61.1151 402.108 62.117 402.283 47.5916L402.396 38.2104H395.633H388.871L388.572 41.0126ZM406.629 39.9161V41.6218H410.222H413.815L413.787 52.9522L413.761 64.2828L415.736 64.4323L417.711 64.5828V53.1233V41.6647L421.204 41.5214L424.698 41.3781L424.849 39.7943L425 38.2104H415.815H406.629V39.9161ZM398.194 46.1296C398.376 48.8772 398.452 53.3178 398.361 55.9981L398.197 60.8714L392.851 61.0084L387.505 61.1457L388.876 58.328C390.145 55.7213 390.963 51.7734 391.957 43.4493L392.233 41.1344H395.048H397.863L398.194 46.1296ZM26.9419 54.2924V64.5264H28.8413H30.7407L30.4578 61.1151L30.175 57.7038L32.2927 57.7008C34.9794 57.6974 37.6112 56.9635 38.8466 55.8729C41.2544 53.7471 42.0763 49.7246 40.666 46.9664C39.4769 44.6403 37.7476 44.0585 32.0253 44.0585H26.9419V54.2924ZM45.7335 54.2924V64.5264H47.7924H49.8513L54.4177 57.4859C56.929 53.6136 59.1469 50.4337 59.3454 50.4196C59.5439 50.4055 59.7067 53.5736 59.7067 57.4601V64.5264H61.6341H63.5614V54.2924V44.0585H61.4H59.238L54.5338 51.2466L49.8291 58.4347L49.6957 51.2466L49.5627 44.0585H47.6479H45.7335V54.2924ZM71.03 54.2915V64.5254L79.1006 64.5259L87.1717 64.5264V66.1922C87.1717 68.7144 87.5942 69.4 89.1502 69.4H90.5442V65.5008C90.5442 61.9825 90.454 61.6024 89.62 61.6024C87.1775 61.6024 87.1717 61.5814 87.1717 52.5346V44.0585H85.2093H83.2469L83.5912 52.5868C83.844 58.8485 83.7896 61.1312 83.3858 61.176C83.0824 61.2096 82.5095 61.2369 82.112 61.2369C81.7146 61.2369 79.8622 61.2096 77.9958 61.176L74.6022 61.1151L74.6445 53.4396C74.6682 49.2183 74.6771 45.3806 74.6656 44.9113C74.6483 44.2549 74.2278 44.0585 72.8369 44.058H71.03V54.2915ZM95.5085 54.3046L95.6039 64.5513L102.108 64.4167L108.613 64.2828V62.8207V61.3587L104.036 61.3227L99.4583 61.2862L99.3149 58.2768L99.1716 55.2671H103.049H106.927V53.8051V52.3431H103.072H99.2177V49.6628V46.9825H104.036H108.854V45.5204V44.0585H102.134H95.4131L95.5085 54.3046ZM114.636 54.2924V64.5264H116.631H118.626L118.337 61.7242C118.178 60.1833 118.181 56.2359 118.343 52.9522L118.64 46.9825H122.902H127.164V55.7544V64.5264H128.851H130.536L130.54 58.3129C130.541 54.8953 130.682 50.29 130.852 48.079L131.161 44.0585H122.899H114.636V54.2924ZM137.902 54.2919L138.005 64.5254L139.812 64.5259L141.619 64.5264V60.1404V55.7544H146.678H151.738V60.1404V64.5264H153.665H155.592V54.2924V44.0585H153.665H151.738V48.4615V52.8646L146.798 52.7256L141.86 52.5868L141.721 48.3226L141.581 44.0585H139.691H137.799L137.902 54.2919ZM162.338 54.3504V64.6428L166.795 64.4329C171.873 64.1935 173.9 63.3773 175.396 60.9694C176.581 59.0615 176.428 55.2812 175.105 53.8026C174.022 52.5921 171.486 51.8616 168.361 51.8597L165.952 51.8582L166.109 47.9581L166.266 44.0585H164.302H162.338V54.3504ZM180.166 54.2924V64.5264L181.973 64.5254L183.78 64.5245L183.852 54.2915L183.926 44.0585H182.045H180.166V54.2924ZM190.909 54.3051L191.007 64.5517L197.512 64.4172L204.017 64.2828V62.8207V61.3587L199.44 61.329L194.862 61.2998L194.718 58.2832L194.575 55.2671H198.453H202.33V53.8051V52.3431H198.476H194.621V49.6803V47.0175L199.319 46.8781L204.017 46.7388L204.169 45.3986L204.322 44.0585H197.567H190.811L190.909 54.3051ZM216.785 54.3217V64.5853L218.592 64.4338L220.399 64.2828L220.235 60.9933L220.071 57.7038L222.162 57.7008C225.432 57.6969 227.658 56.8553 229.25 55.0219C231.094 52.8981 231.604 50.3514 230.71 47.7364C229.709 44.807 227.884 44.0599 221.725 44.0594L216.785 44.0585V54.3217ZM236.059 54.2924V64.5264H242.564H249.069V63.1171C249.069 61.4197 247.963 61.0195 243.564 61.1229C241.954 61.1608 240.355 61.1745 240.01 61.1536C239.555 61.1258 239.423 60.348 239.528 58.3129L239.672 55.5108L243.407 55.3685L247.141 55.2261V53.7846V52.3431H243.286C239.024 52.3431 239.144 52.463 239.741 48.8099L240.04 46.9825H244.554H249.069V45.5204V44.0585H242.564H236.059V54.2924ZM255.022 54.2905L255.092 64.5225L267.74 64.5245L280.388 64.5264V54.2924V44.0585H278.461H276.533V52.5512C276.533 62.1414 276.851 61.4805 272.376 61.1916L269.787 61.0249V52.5415V44.0585H267.86H265.933V52.5868C265.933 57.2774 265.77 61.137 265.571 61.1638C265.372 61.1901 264.126 61.2579 262.801 61.3134C258.424 61.4971 258.705 62.1 258.705 52.5298V44.0585H256.829H254.951L255.022 54.2905ZM288.098 54.2924V64.5264H294.602H301.107V63.097C301.107 61.329 300.311 61.0254 295.927 61.1195C294.138 61.1575 292.404 61.1726 292.072 61.1521C291.661 61.1268 291.47 60.1857 291.47 58.1911V55.2671H295.325H299.18V53.8051V52.3431H295.325C291.049 52.3431 291.019 52.3105 291.771 48.5054L292.072 46.9825H296.59H301.107V45.5204V44.0585H294.602H288.098V54.2924ZM306.889 54.2924V64.5264H308.868H310.847L310.675 60.2622L310.503 55.9981L315.682 55.8597L320.862 55.7213V60.1239V64.5264H322.549H324.235L324.329 55.9981C324.38 51.3075 324.434 46.7568 324.449 45.886C324.474 44.405 324.359 44.2924 322.688 44.152L320.901 44.0019L320.761 48.2943L320.622 52.5868L315.682 52.7256L310.743 52.8646V48.4615V44.0585H308.816H306.889V54.2924ZM331.579 54.2924L331.674 64.5264H333.661H335.648L340.421 57.3382L345.195 50.1501L345.329 57.3382L345.461 64.5264H347.376H349.29V54.2924V44.0585H347.198H345.105L340.332 51.2466L335.558 58.4347L335.425 51.2466L335.292 44.0585H333.388H331.484L331.579 54.2924ZM359.051 44.8601C357.092 45.8362 355.554 48.2977 355.556 50.4513C355.558 52.3446 356.973 54.9571 358.42 55.7403C358.964 56.0351 359.409 56.4747 359.409 56.7169C359.409 56.9596 358.303 58.6179 356.95 60.4026C355.598 62.1867 354.677 63.8163 354.903 64.0235C355.128 64.231 355.894 64.5386 356.604 64.708C358.214 65.0908 358.85 64.4762 361.142 60.3334C362.842 57.2583 362.946 57.1686 364.645 57.3124L366.395 57.4601L366.224 60.9933L366.052 64.5264H368.031H370.009V54.2924V44.0585L365.312 44.0696C361.998 44.0775 360.153 44.3104 359.051 44.8601ZM36.3594 48.1788C37.6521 49.4858 37.8488 50.8504 36.9819 52.4971C36.0891 54.192 35.0454 54.7476 32.7239 54.7642L30.5556 54.7798L30.601 52.465C30.7157 46.5853 30.5427 46.9825 32.9865 46.9825C34.6696 46.9825 35.4506 47.2593 36.3594 48.1788ZM225.514 47.4995C226.921 48.2617 227.515 50.2257 226.905 52.0979C226.311 53.9191 224.757 54.7798 222.063 54.7798H220.158L220.163 52.7086C220.167 51.5692 220.304 49.8153 220.467 48.8099C220.754 47.059 220.845 46.9825 222.662 46.9825C223.705 46.9825 224.988 47.2149 225.514 47.4995ZM366.155 50.6374V54.2924H364.491C361.023 54.2924 358.865 51.9054 359.884 49.1964C360.471 47.6325 361.657 47.0151 364.107 46.997L366.155 46.9825V50.6374ZM170.35 55.0712C171.374 55.3494 172.457 57.1004 172.457 58.4801C172.457 58.8816 171.924 59.7481 171.274 60.406C170.365 61.3256 169.584 61.6024 167.901 61.6024H165.711V58.1911V54.7798L167.518 54.7866C168.512 54.79 169.786 54.9182 170.35 55.0712Z" fill="white"/>
<path fill-rule="evenodd" clip-rule="evenodd" d="M117.201 0.552976C102.63 0.965358 76.5243 1.13744 102.599 1.7157C133.408 2.40016 275.823 2.42574 283.59 1.7157C298.721 0.33128 160.526 -0.674091 117.201 0.552976ZM39.5791 7.82456C22.4338 8.47336 11.8141 8.65489 41.5004 9.85481C88.2393 11.7446 348.301 10.9431 367.36 8.69208C370.12 8.36652 323.62 8.07491 273.918 8.01836C224.216 7.96252 154.009 7.78809 117.905 7.63076C81.8003 7.47337 46.5536 7.5602 39.5791 7.82456ZM96.8353 90.9039C84.9993 91.219 64.2492 91.9485 50.7229 92.5243L16.9072 93.8155H74.9318C143.025 94.157 389.335 94.2344 378.12 93.5714C344.618 91.5908 152.192 89.4282 96.8353 90.9039ZM124.118 99.4597C106.576 99.8573 77.1413 100.549 76.0846 100.935C73.5992 101.844 139.332 101.877 241.32 101.128C284.858 100.809 324.668 100.824 320.864 100.547C308.653 99.6598 157.119 98.7121 124.118 99.4597Z" fill="#D4252C"/>
</g>
<defs>
<clipPath id="clip0_2003_491">
<rect width="425" height="102" fill="white"/>
</clipPath>
</defs>
</svg>
