<svg width="64" height="64" viewBox="0 0 64 64" fill="none" xmlns="http://www.w3.org/2000/svg">
<path d="M50.8001 13.0934C48.3553 10.6239 45.4433 8.66586 42.2338 7.33355C39.0244 6.00124 35.5818 5.3213 32.1068 5.33341C17.5468 5.33341 5.68013 17.2001 5.68013 31.7601C5.68013 36.4267 6.9068 40.9601 9.20013 44.9601L5.4668 58.6667L19.4668 54.9867C23.3335 57.0934 27.6801 58.2134 32.1068 58.2134C46.6668 58.2134 58.5335 46.3467 58.5335 31.7867C58.5335 24.7201 55.7868 18.0801 50.8001 13.0934ZM32.1068 53.7334C28.1601 53.7334 24.2935 52.6667 20.9068 50.6667L20.1068 50.1867L11.7868 52.3734L14.0001 44.2667L13.4668 43.4401C11.2741 39.9387 10.1098 35.8914 10.1068 31.7601C10.1068 19.6534 19.9735 9.78674 32.0801 9.78674C37.9468 9.78674 43.4668 12.0801 47.6001 16.2401C49.6468 18.2773 51.2687 20.7005 52.3718 23.3692C53.475 26.0379 54.0375 28.899 54.0268 31.7867C54.0801 43.8934 44.2135 53.7334 32.1068 53.7334ZM44.1601 37.3067C43.4935 36.9867 40.2401 35.3867 39.6535 35.1467C39.0401 34.9334 38.6135 34.8267 38.1601 35.4667C37.7068 36.1334 36.4535 37.6267 36.0801 38.0534C35.7068 38.5067 35.3068 38.5601 34.6401 38.2134C33.9735 37.8934 31.8401 37.1734 29.3335 34.9334C27.3601 33.1734 26.0535 31.0134 25.6535 30.3467C25.2801 29.6801 25.6001 29.3334 25.9468 28.9867C26.2401 28.6934 26.6135 28.2134 26.9335 27.8401C27.2535 27.4667 27.3868 27.1734 27.6001 26.7467C27.8135 26.2934 27.7068 25.9201 27.5468 25.6001C27.3868 25.2801 26.0535 22.0267 25.5201 20.6934C24.9868 19.4134 24.4268 19.5734 24.0268 19.5467H22.7468C22.2935 19.5467 21.6001 19.7067 20.9868 20.3734C20.4001 21.0401 18.6935 22.6401 18.6935 25.8934C18.6935 29.1467 21.0668 32.2934 21.3868 32.7201C21.7068 33.1734 26.0535 39.8401 32.6668 42.6934C34.2401 43.3867 35.4668 43.7867 36.4268 44.0801C38.0001 44.5867 39.4401 44.5067 40.5868 44.3467C41.8668 44.1601 44.5068 42.7467 45.0401 41.2001C45.6001 39.6534 45.6001 38.3467 45.4135 38.0534C45.2268 37.7601 44.8268 37.6267 44.1601 37.3067Z" fill="white"/>
</svg>
